<svg version="1.2" xmlns="http://www.w3.org/2000/svg" viewBox="0 0 1024 1024" width="1024" height="1024"><style></style><path fill-rule="evenodd" d="m530.5 159.5c15.2 4.2 27.7 13.7 37.7 29l4.6 7 10.8 3.9c14.1 4.9 35.9 15.6 50 24.4l11.1 6.9 12.4-0.5c14.4-0.5 21.2 0.8 32.5 6.4 22.9 11.3 38.4 35.7 38.4 60.4 0 7.7-2.7 20.6-5.3 25.6-1.3 2.5-1.1 3.4 2 11.2 6.8 16.9 12.9 42.4 15 63.2 0.6 6.1 0.9 6.9 5.9 12.2 6.1 6.7 12 17.9 13.4 25.7 3.1 16.6-0.7 34.2-10.1 46.8-4 5.4-13.2 13.1-19 15.8-3 1.5-4.1 3.3-10.2 17l-6.8 15.3 1.2 6.8c2.3 13-0.8 28-8 39.3-4.5 7-15.8 17.4-22.4 20.5-9.6 4.5-16.1 5.7-28.7 5.4l-11.6-0.3-10.9 6.6c-15.1 9.2-26.4 14.6-44 21.3l-15 5.7-4.4 8c-8.6 15.4-21.4 26.2-37.1 31.1-10.8 3.3-30.4 3.3-40.4 0-9.1-3.1-12.8-5-20.4-10.7-7-5.3-12.3-11.7-17.9-22l-3.8-6.8-9-3.2c-19-6.9-36.7-15.5-52.5-25.5l-7.5-4.7-12.5 0.5c-11.6 0.4-13.1 0.2-20.5-2.3-9.7-3.2-15.6-6.8-22.4-13.8-14.6-14.8-19.8-31.7-16-50.9 1.1-5.2 1-5.7-2.3-12.4-1.9-3.8-4.9-10.6-6.7-15-3-7.5-3.6-8.3-7.4-10-6.1-2.7-19.8-16.7-23.1-23.5-10.8-22.3-7.5-48.7 8-64.5 4.5-4.7 5.4-6.2 5.4-9.2 0-5.3 2.6-22.3 5-33.2 2.3-11 5.8-22.1 10.5-33.7l3.3-8.2-2.3-5.8c-3.1-7.6-4.9-20.2-4.1-28.1 0.9-8.5 4.8-20.5 9-27.4 13.6-22.6 35.1-34.2 62.6-33.7l10.9 0.1 9.8-6c17.7-10.9 49.7-25.7 60.3-27.8 2.3-0.5 3.8-2.2 7.3-8.3 9.8-16.6 23.4-26.1 43.2-30 6.8-1.4 24.7-0.6 32 1.4zm-17.9 25.8c-7.8-0.3-9.9 0-14.7 2-10.2 4.3-16.3 10-20.6 19.2-2.5 5.4-2.8 7-2.8 17 0 10 0.3 11.5 2.8 16.6 3.4 7 10.9 14.2 18.5 17.7 5 2.3 7 2.7 15.7 2.7 8.9 0 10.7-0.3 16.2-2.9 4-1.8 8.1-4.8 11.3-8.2 9-9.5 12.7-23.3 9.6-35.4-3-11.5-10.3-20.2-21.5-25.7-4.5-2.2-7.2-2.8-14.5-3zm-67.5 29.7c-1.3 0-20.2 8.9-31.7 14.9-12.4 6.5-17.7 10.1-15.7 10.8 3.3 1.2 11 7.2 14.9 11.8l4.5 5.2 15.2-7.8c15.2-7.8 15.2-7.8 15-11.1-0.1-1.8-0.5-7.9-0.9-13.6-0.4-5.6-0.9-10.2-1.3-10.2zm133 0c-0.5 0-1.1 4.8-1.4 10.7-0.4 6-0.9 12.1-1.2 13.8-0.6 3-0.6 3 15.5 10.8l16.1 7.9 2.2-2.9c3-4 8.5-9.1 13.1-12.1l3.8-2.6-2.8-2.3c-1.6-1.3-12.3-7.1-23.7-12.8-11.5-5.8-21.2-10.5-21.6-10.5zm-244.9 56.5c-8 8.8-11.5 20.9-9.2 32.2 6 29.2 42.5 40.2 64 19.3 9.1-8.8 13.3-21.6 11-33.2-2.9-14.9-11.6-25-25.8-29.7-14.3-4.8-29-0.7-40 11.4zm294 9.3c-2.2 4.8-2.6 7.2-2.6 15.2-0.1 8.7 0.2 10.1 3 16 4 8.3 10.2 14.5 18.4 18.4 5.9 2.8 7.4 3.1 16.5 3.1 8.7 0 10.7-0.3 15.5-2.6 8.2-3.9 14.4-9.9 18.2-17.7 3.1-6.3 3.3-7.3 3.3-17.2-0.1-12.5-1.8-17.2-9.2-25.1-5.1-5.5-10.7-8.7-19.2-11.3-17.2-5.1-36 4-43.9 21.2zm-163.1-12.3l-5.6-6-16.8 8.5-16.9 8.5 0.9 4.5c0.4 2.5 0.8 9.1 0.8 14.8v10.2l22.4 11.7c15.2 7.9 22.5 11.2 23 10.4 0.4-0.6 2.9-11.3 5.5-23.8 2.6-12.4 5-23.1 5.2-23.8 0.3-0.7-2.5-2.9-6.2-5.1-3.7-2.1-9.2-6.6-12.3-9.9zm100-5.3c-0.4-0.1-2.6 2-4.9 4.7-3.5 4.1-10 9.1-17.7 13.6-1.6 1-1.4 2.6 3.5 25 2.9 13.2 5.6 24.4 6 24.9 0.8 0.8 19.9-8.4 39-18.8l6.5-3.5v-10.8c0-5.9 0.4-12.6 0.8-14.8l0.7-4-16.5-8c-9.2-4.4-17-8.1-17.4-8.3zm-52.6 25.8c-5.4 0-5.4 0-6.4 3.7-2.7 10-12.2 53.6-11.8 53.9 0.1 0.1 2.5-0.2 5.2-0.6 6.6-1.1 20.8-1.1 26.5 0 2.5 0.4 4.6 0.7 4.7 0.6 0.1-0.1-0.5-3.1-1.3-6.6-0.8-3.6-3.5-16.2-6-28-2.5-11.8-4.8-21.8-5-22.2-0.3-0.5-2.9-0.8-5.9-0.8zm-93 42c-0.2 0-1.1 1.2-2.1 2.7-0.9 1.6-4.3 5.5-7.5 8.8l-5.7 6 5.6 8.5c3.2 4.7 9.9 15.4 15.1 23.9 5.1 8.4 9.7 14.9 10.2 14.4 0.4-0.4 2.2-3.5 4-6.8 4.7-9 12.8-18.4 21.3-24.9 4.2-3.3 7.6-6.2 7.6-6.5 0-0.6-5.4-3.6-32.9-18-8.4-4.5-15.5-8.1-15.6-8.1zm182 1.4c-1.1 0.7-11.6 6.4-23.2 12.6-11.7 6.3-21.3 11.7-21.3 12 0 0.4 1.7 1.9 3.8 3.2 10 6.7 20.7 18.8 26.3 30 1.6 3.2 3.3 5.8 3.7 5.8 0.4 0 7.1-10.9 15-24.1l14.3-24-5.6-6.1c-3.1-3.3-6.3-7.1-7.2-8.4-1.8-2.7-3-3-5.8-1zm-286.7 9.6c-1.6 0-13.8 50.3-12.5 51.6 0.2 0.2 3.5-0.3 7.3-1.1 3.8-0.8 8.9-1.5 11.4-1.5h4.5l4.3-16.8c2.3-9.2 4.2-17.2 4.2-17.7 0-0.6-1.8-1.9-4-2.9-2.1-1-6.4-4.1-9.4-6.7-3-2.7-5.6-4.9-5.8-4.9zm395.3 1.8c-0.3-0.3-2.4 1-4.6 2.9-2.2 1.9-6.4 4.9-9.2 6.5-2.9 1.6-5.3 3.7-5.3 4.5 0 0.9 2 8.5 4.5 17 2.5 8.4 4.5 15.5 4.5 15.7 0 0.2 3.5 0.6 7.8 0.9 4.2 0.3 9.2 1.1 11 1.8 1.8 0.6 3.5 1 3.7 0.8 1.3-1.4-5.7-32.8-9.6-43.7-1.2-3.1-2.4-6-2.8-6.4zm-327.3 14.3c-0.2 0-2.1 0.7-4.3 1.6-2.3 0.9-7.5 1.6-12.3 1.7l-8.2 0.1-2 6.5c-1.6 5.2-8 29-8 29.7 0 0 2 1.3 4.3 2.6 2.4 1.4 7.1 5.5 10.5 9.1 3.4 3.7 6.7 6.6 7.4 6.6 1.2 0 39.8-12 40.7-12.6 0.5-0.5-9.6-17.3-19.5-32.7-4.6-7-8.5-12.7-8.6-12.6zm260.1 0.5c-1.3-0.6-3.4 2-9.6 12.1-12.4 20.1-19.6 32.3-19.2 32.7 0.2 0.2 9.8 3.4 21.4 7.1l20.9 6.7 1.6-2.3c3.2-5 7.5-9.1 13.5-13.1l6.3-4.1-2-7c-1-3.9-3.5-12-5.4-17.9l-3.5-10.8h-5.2c-2.9-0.1-7.9-0.7-11.2-1.4-3.3-0.8-6.7-1.7-7.6-2zm-157.8 21.9c-18.6 9.8-30.1 29-30.1 50.5 0 20.6 12.1 40.2 30.8 49.8 9.9 5.1 15.3 6.3 27.2 6.3 11.5 0 22.6-3.1 30.5-8.4 10.5-7.2 20.7-20.3 24.1-31.2 2.2-6.8 2.9-21.2 1.4-28.8-4.1-21.4-22.4-39.6-44.5-44.2-13.6-2.9-26.2-0.9-39.4 6zm-172.7 38.5c-5.4 1.7-12.8 7.3-16.1 12.3-13.2 19.8 1.3 46.7 25.3 46.7 12 0 24.3-8.9 27.8-20.4 4.5-14.5-1.7-29.7-14.8-36.1-5.9-2.9-16.9-4.1-22.2-2.5zm381.8 0.6c-6.1 2.3-14.5 10.3-17.1 16.5-4.9 11.3-1.9 26.5 6.6 34 6.3 5.4 11.7 7.4 20.8 7.3 6.6 0 8.9-0.5 13-2.6 23-12 22.4-43.6-1-53.9-6.4-2.8-16.5-3.4-22.3-1.3zm-268.6 3.5c-1.2 0.1-28.4 9.2-40.3 13.5l-7.3 2.6v11.8l24 0.1c13.2 0.1 24.6 0.2 25.3 0.3 0.6 0.1 1-0.6 0.8-1.4-0.2-0.8-0.6-7.2-0.9-14.3-0.3-8.4-0.8-12.7-1.6-12.6zm172.8-0.1c-0.1 0-0.4 5.3-0.7 11.7-0.3 6.5-0.8 13-1.2 14.5l-0.7 2.8h51l0.4-6.1c0.3-5.2 0-6.2-1.7-7.1-1-0.6-12-4.4-24.4-8.4-12.4-4.1-22.6-7.4-22.7-7.4zm-161.8 48c-0.1 0-8.7 8.6-19.1 19.1-10.5 10.5-22.4 22.2-26.6 26l-7.7 6.9-4.8-2.8c-4.3-2.4-6-2.7-13.4-2.7-6.8 0-9.3 0.5-12.6 2.2-6.3 3.4-9.7 6.6-12.9 12.5-2.7 4.7-3 6.3-3 13.8 0 7.1 0.4 9.3 2.5 13.4 7.1 13.8 25.4 19.6 39.5 12.3 10.3-5.3 15.4-13.6 15.5-25.3v-7.1l11.9-6.6c6.5-3.6 20.6-11.2 31.2-16.8 10.7-5.6 21.3-11.3 23.7-12.6l4.3-2.4-3.8-2.6c-6-4-12-10.1-18.5-19.1-3.3-4.5-6.1-8.2-6.2-8.2zm150.3 1c-0.2 0-2.3 2.9-4.6 6.3-4.7 6.9-11.8 14.7-17.6 19.4l-3.9 3.1 13.9 7.2c18.5 9.8 45.7 24.6 51.6 28.2l4.7 3v7.1c0.1 11.8 5.1 20 15.5 25.5 4.3 2.3 6.2 2.7 13.5 2.7 9.5 0 14.5-1.9 20.8-7.9 6.1-5.7 7.7-9.9 7.7-20.6 0-8.6-0.3-10-2.7-14.2-8.1-13.7-26-18.9-39.4-11.4l-4.7 2.6-3.1-2.7c-1.7-1.6-5.7-5.3-9-8.3-3.4-3-12.8-12.1-21.1-20.1-8.2-8.1-16.4-15.9-18.1-17.3-1.8-1.4-3.3-2.6-3.5-2.6zm-201.6 3h-13.9l-4.4 6.7c-2.5 3.7-4.6 7-4.8 7.4-0.1 0.3 2.6 0.9 6.2 1.2 3.5 0.3 8 1.3 9.9 2.1l3.5 1.4 7.4-7.7c4.1-4.2 8-8.4 8.7-9.4 1.3-1.6 0.5-1.7-12.6-1.7zm268.3 0h-13.8c-7.6 0-13.8 0.3-13.8 0.7 0.1 0.5 3.7 4.6 8 9.2l7.9 8.4 7-1.6c3.8-0.9 8.5-1.7 10.6-1.7 2 0 3.5-0.3 3.3-0.8-0.2-0.4-2.3-3.7-4.7-7.5zm-152.8 38.8c-3-0.5-4.8-0.4-4.8 0.2 0 0.5 1.8 8.2 4 17.1 2.2 8.9 4 16.3 4 16.5 0 0.2 4 0.4 8.8 0.4h8.9l3.1-15.3c1.8-8.3 3.5-16.2 3.8-17.4 0.6-2.1 0.4-2.2-3.2-1.5-2.2 0.4-7.5 0.7-11.9 0.7-4.4 0-10.1-0.3-12.7-0.7zm-23.6 23.5l-3.7-15.2-19 10c-10.4 5.4-21.8 11.4-25.2 13.1-3.5 1.8-6.3 3.5-6.3 3.8 0 0.3 2.8 2 6.3 3.7 3.4 1.8 12.5 6.7 20.2 10.8 13.8 7.4 14 7.5 15.4 5.5 1.7-2.5 13.3-11 15-11 0.6 0 1.1-1.2 1.1-2.8-0.1-1.5-1.8-9.5-3.8-17.9zm73.3-13c-1.5 6.5-6.5 32.1-6.2 32.2 0.1 0.2 1.6 1 3.4 1.9 1.7 0.9 5.9 4.1 9.2 7.1l6 5.6 12.8-7.2c24.7-14 26.5-15.1 25.6-16-0.5-0.5-11-6.1-23.3-12.5-27.9-14.4-26.8-14-27.5-11.1zm-135 46.7c-0.3 0-1.7 1.9-3.1 4.2-1.4 2.4-5.1 6.9-8.2 10l-5.5 5.6 5.9 3.8c5.8 3.7 30.2 15.7 38.1 18.7l4.2 1.6 0.6-5.7c0.4-3.1 1.3-8.3 2.1-11.5 0.8-3.2 1.4-6.3 1.4-6.8 0-0.5-2.4-2.1-5.2-3.5-2.9-1.5-10.8-5.8-17.6-9.5-6.7-3.8-12.5-6.9-12.7-6.9zm198.6 7l-4.7-6.8-17.5 9.5c-9.6 5.2-17.7 9.8-18.2 10.2-0.4 0.4-0.1 2.3 0.7 4.2 0.8 1.9 2 7.3 2.6 11.9 0.6 4.7 1.3 8.6 1.5 8.8 0.2 0.2 1.1-0.1 2.2-0.6 1-0.5 6.6-3.1 12.6-5.7 11.7-5.2 29.3-14.6 31.6-17 1.4-1.3 1.1-1.9-2.2-4.6-2.1-1.7-6-6.2-8.6-9.9zm-137.9 37.4c0.9 13.1 8.6 24.4 20.7 30.4 5 2.4 6.7 2.7 15.6 2.7 8.8 0 10.7-0.3 15.8-2.7 7.9-3.7 15.9-12 18.8-19.5 3.1-8.1 3.1-19.9 0-26.8-4.9-11.1-12.6-18.3-23.2-21.6-25.2-7.9-49.4 11.1-47.7 37.5z"/><path  d="m290.6 710.1c-11.2 2.8-21.2 10-28.6 20.5-11 15.7-11.4 39.2-1 55.4 4.1 6.3 13.5 15.1 19 17.8 17.5 8.3 37.9 6.3 51.5-5.3l4-3.4-6-6-6-6-6.9 3.4c-5.9 3-7.8 3.5-14.1 3.5-6.3 0-8.2-0.5-13.6-3.3-23.1-11.9-22-44.3 2-55.8 8.8-4.3 22.5-2.5 30.8 4.1l2.5 2 7.1-6.2 7-6.2-4.4-3.8c-2.4-2.1-7.6-5.4-11.6-7.4-6.8-3.5-8-3.7-17.5-4-5.7-0.2-12 0.1-14.2 0.7z"/><path  d="m734 722.5v9.5h-5.5-5.5v8.1 8.1l5.5-0.4 5.5-0.5v20.5c0 12.6 0.4 21.9 1.2 24.3 1.5 5.1 7 11.4 12.2 14.1 5 2.6 15.9 3.5 21 1.8l3.6-1.2v-8.2-8.2l-6.8 0.4c-6.2 0.4-6.9 0.2-9.5-2.3l-2.7-2.8v-18.8-18.9h9.5 9.6l-0.3-7.8-0.3-7.7-9.2-0.3-9.3-0.3v-9.4-9.5h-9.5-9.5z"/><path fill-rule="evenodd" d="m628.3 733.8c14 6.6 21.7 19.8 21.7 36.7v5.5h-26.5c-17.8 0-26.5 0.3-26.5 1 0 2.3 3.2 7 6.2 9.3 7.5 5.5 14.8 6 23.6 1.6l6.2-3 5.5 4.7c3 2.6 5.5 5.1 5.5 5.5 0 1.5-6.8 6.3-13 9.3-5.9 2.8-7.4 3.1-16.5 3.1-8.8 0-10.7-0.3-15.7-2.7-7.4-3.4-15.2-11.2-18.6-18.6-2.5-5.2-2.7-6.8-2.7-17.7 0-10.5 0.3-12.6 2.3-16.7 4.8-9.8 14.1-17.6 24.1-20.5 7.1-2 17.1-1 24.4 2.5zm-21.8 15.4c-3.2 1.7-7.6 6.1-9.1 9l-1.5 2.8h35.2l-1.2-2.3c-1.7-3.2-6-7.7-9.1-9.3-3.2-1.7-11.5-1.8-14.3-0.2z"/><path fill-rule="evenodd" d="m389.4 734.3c7.1 3.3 15 11.1 18.4 18.5 2.4 5.1 2.7 6.9 2.7 16.7 0 10-0.2 11.5-2.8 16.7-3.6 7.4-10.2 13.9-17.5 17.5-5.1 2.5-6.7 2.8-16.2 2.8-9.9 0-10.9-0.2-17.2-3.3-29.7-14.6-26.9-58.6 4.4-70.3 7.6-2.8 20.4-2.2 28.2 1.4zm-33.5 25.5c-4.6 9.4-2.3 19.6 5.9 25.9 5.3 4 10.6 4.9 17.5 2.9 17.8-5.2 20-29.2 3.5-37.7-10.3-5.3-21.9-1.5-26.9 8.9z"/><path  d="m422.5 747.9c-0.4 9.4-0.4 26.7 0 38.5l0.8 21.5 8.8 0.3 8.8 0.3 0.3-25.5c0.3-24.6 0.4-25.6 2.6-28.7 1.3-1.8 4.1-3.9 6.7-4.8 3.8-1.5 4.9-1.6 8.6-0.4 2.4 0.8 5.1 2.6 6.3 4.2 2 2.7 2.1 4.3 2.4 29l0.3 26.2 8.8-0.3 8.9-0.3 0.7-17.7c1.5-35.3-0.2-45.3-9.1-53.1-5.4-4.7-11.2-6.4-20.2-5.9-5.4 0.3-7.8 0.9-11 3l-4.1 2.7-0.3-2.7c-0.3-2.7-0.3-2.7-9.4-3l-9.1-0.3z"/><path  d="m499.5 732.1c-0.3 0.8-0.4 18.3-0.3 38.9l0.3 37.4 2.5-0.1c1.4 0 5.5-0.1 9.3-0.2l6.7-0.1v-24.6c0-16.2 0.4-25.3 1.1-26.7 3.7-7.1 10.5-9.9 17.6-7.2 7.1 2.7 7.3 3.6 7.3 33v25.5h9 9.1l-0.3-30.3-0.3-30.4-3-4.9c-4.3-6.8-10.8-10.7-19.1-11.2-8.2-0.5-12.3 0.3-16.8 3.3-2 1.4-3.8 2.5-4 2.5-0.2 0-0.1-1.1 0.2-2.5 0.4-2.5 0.4-2.5-6.9-2.5-4.1 0-8.4-0.3-9.6-0.6-1.5-0.4-2.5-0.1-2.8 0.7z"/><path  d="m677.2 734c-7.8 3.7-15 10.8-18.8 18.5-2.6 5.5-2.9 7-2.9 16.5 0 9.9 0.2 11 3.2 17.1 3.9 8 11.1 15 19.1 18.7 4.9 2.3 7 2.7 15.2 2.7 8.3 0 10.2-0.3 15-2.7 6.7-3.3 13.2-8.6 12.8-10.3-0.2-0.7-2.7-3.3-5.7-5.9-4.9-4.1-5.6-4.4-7.1-3.1-7.3 6.6-21.8 5.7-28.7-1.7-7-7.5-7-22.1 0-29.6 6.7-7.2 18.3-8.3 25.6-2.4l3.9 3.1 6-5.2c3.3-2.9 6.1-5.5 6.1-5.8 0.1-0.4-2.3-2.5-5.3-4.8-7.8-6-13.9-8.1-23.9-8.1-7 0-9.1 0.4-14.5 3z"/></svg>